<?xml version="1.0" standalone="no"?>
<!DOCTYPE svg PUBLIC "-//W3C//DTD SVG 20010904//EN"
 "http://www.w3.org/TR/2001/REC-SVG-20010904/DTD/svg10.dtd">
<svg version="1.0" xmlns="http://www.w3.org/2000/svg"
 width="512.000000pt" height="512.000000pt" viewBox="0 0 512.000000 512.000000"
 preserveAspectRatio="xMidYMid meet">
<metadata>
Created by potrace 1.11, written by Peter Selinger 2001-2013
</metadata>
<g transform="translate(0.000000,512.000000) scale(0.100000,-0.100000)"
fill="#000000" stroke="none">
<path d="M2472 4990 c-105 -28 -186 -75 -273 -157 l-76 -73 -47 36 c-114 86
-289 144 -466 151 -133 6 -201 -7 -308 -60 -92 -44 -202 -153 -226 -222 -32
-97 -30 -188 9 -285 4 -11 -6 -23 -33 -38 -21 -12 -62 -41 -91 -64 -142 -115
-260 -358 -261 -533 0 -169 117 -359 267 -431 122 -58 302 -40 558 55 59 23
110 40 111 38 2 -2 10 -40 18 -86 28 -161 105 -274 225 -334 61 -30 72 -32
166 -31 85 0 114 5 190 31 50 17 121 48 158 69 112 63 256 220 286 311 16 49
20 49 110 -19 35 -26 68 -48 73 -48 23 0 -52 -108 -107 -153 -33 -27 -84 -71
-113 -98 -29 -27 -56 -49 -60 -49 -4 0 -32 -23 -62 -51 -30 -28 -67 -57 -82
-65 -35 -18 -108 -109 -108 -134 0 -14 -13 -21 -52 -30 -136 -32 -421 -135
-516 -185 -26 -14 -50 -25 -55 -25 -13 0 -220 -131 -295 -188 -135 -101 -281
-257 -388 -412 -83 -121 -151 -291 -177 -445 -14 -78 -15 -267 -2 -330 40
-200 118 -340 279 -500 109 -109 128 -125 233 -198 86 -60 236 -139 343 -180
68 -27 247 -83 290 -91 14 -3 35 -7 46 -10 12 -2 37 -7 55 -10 19 -3 54 -9 79
-14 25 -4 55 -7 68 -6 47 3 4 -13 -93 -35 -55 -12 -109 -24 -120 -27 -11 -2
-76 -17 -145 -33 l-125 -29 106 -1 c59 -1 131 4 160 9 30 6 72 13 94 16 44 7
208 41 355 75 95 22 479 146 555 179 22 9 65 28 95 41 151 65 443 224 592 323
132 88 175 123 284 234 128 130 222 286 275 458 24 77 23 76 44 168 64 287 21
533 -133 765 -86 131 -289 304 -431 368 -57 25 -183 72 -211 78 -8 2 -46 10
-85 19 -38 8 -88 17 -110 20 -22 3 -49 7 -60 10 -60 12 -256 25 -404 25 l-113
1 68 46 c38 25 92 73 119 106 28 33 67 81 88 105 21 25 52 73 69 107 17 33 51
89 76 124 26 34 47 74 48 88 1 33 -35 70 -84 84 -20 6 -57 28 -82 51 l-45 40
35 -5 c92 -15 261 -18 344 -7 242 33 389 126 390 249 1 60 -23 108 -85 171
l-49 50 119 62 c259 133 358 269 316 433 -20 76 -62 142 -131 205 -208 190
-553 213 -814 52 l-48 -29 -10 21 c-42 91 -192 211 -308 247 -85 26 -212 26
-312 0z"/>
</g>
</svg>
